<?xml version="1.0" encoding="utf-8"?>
<!-- Generator: Adobe Illustrator 23.0.4, SVG Export Plug-In . SVG Version: 6.00 Build 0)  -->
<svg version="1.1" id="Layer_1" xmlns="http://www.w3.org/2000/svg" xmlns:xlink="http://www.w3.org/1999/xlink" x="0px" y="0px"
	 viewBox="0 0 310 310" enable-background="new 0 0 310 310" xml:space="preserve">
<rect fill="none" width="310" height="310"/>
<g>
	<path fill="#36C7A7" d="M277.581,14.931c4.961,1.438,9.01,4.245,12.145,8.421c3.133,4.049,4.699,8.685,4.699,13.906v235.417
		c0,6.398-2.221,11.818-6.658,16.256c-4.572,4.571-10.057,6.854-16.453,6.854c-6.398,0-11.883-2.283-16.451-6.854
		c-4.439-4.438-6.658-9.857-6.658-16.256V120.301l-73.055,120.646v0.195l-0.195,0.196l-0.195,0.195l-0.197,0.196
		c-0.391,0.654-0.654,1.11-0.783,1.371l-0.588,0.783c-0.521,0.523-0.85,0.851-0.979,0.979c-0.131,0.131-0.393,0.392-0.783,0.783
		c-0.393,0.392-0.654,0.655-0.783,0.783c-0.264,0.264-0.654,0.588-1.176,0.979l-0.588,0.588c-0.391,0.263-0.85,0.522-1.371,0.783
		c0,0.132-0.066,0.195-0.195,0.195l-0.195,0.196h-0.195c-0.264,0.263-0.721,0.523-1.371,0.783c-0.523,0.264-0.721,0.392-0.588,0.392
		c-0.133,0-0.523,0.132-1.176,0.392c-3.006,1.307-6.139,1.895-9.4,1.763h-0.393c0.26,0,0-0.063-0.783-0.195
		c-1.697-0.129-3.396-0.456-5.092-0.979c-0.654-0.129-0.916-0.196-0.783-0.196c0.26,0.132,0,0.067-0.783-0.195
		c-0.656-0.26-1.111-0.456-1.371-0.588c0.129,0,0-0.128-0.393-0.392c-0.654-0.26-1.174-0.521-1.566-0.783h-0.195l-0.197-0.196
		l-0.195-0.195c-0.523-0.261-0.979-0.588-1.371-0.979c0,0.132-0.195,0-0.588-0.392c-0.523-0.392-0.914-0.716-1.174-0.979
		c-0.133-0.128-0.393-0.392-0.783-0.783c-0.393-0.392-0.656-0.652-0.785-0.783c-0.131-0.261-0.459-0.588-0.979-0.979
		c-0.264-0.392-0.391-0.652-0.391-0.783c-0.264-0.261-0.588-0.717-0.98-1.371l-0.195-0.196c0-0.128-0.068-0.195-0.195-0.195v-0.196
		c0-0.128-0.068-0.195-0.197-0.195L62.141,120.301v152.375c0,6.398-2.285,11.818-6.855,16.256
		c-4.57,4.571-10.055,6.854-16.451,6.854c-6.398,0-11.818-2.283-16.256-6.854c-4.572-4.438-6.854-9.857-6.854-16.256V37.259
		c0-5.221,1.566-9.857,4.7-13.906c3.134-4.177,7.247-6.983,12.34-8.421c4.959-1.304,9.855-1.043,14.688,0.783
		c4.83,1.958,8.619,5.16,11.359,9.597l96.361,159.229l96.359-159.229c2.611-4.438,6.332-7.639,11.164-9.597
		c4.83-1.827,7.246-2.742,7.246-2.742S272.489,13.628,277.581,14.931z"/>
</g>
</svg>
