<?xml version="1.0" standalone="no"?>
<!DOCTYPE svg PUBLIC "-//W3C//DTD SVG 20010904//EN"
 "http://www.w3.org/TR/2001/REC-SVG-20010904/DTD/svg10.dtd">
<svg version="1.0" xmlns="http://www.w3.org/2000/svg"
 width="700.000000pt" height="700.000000pt" viewBox="0 0 700.000000 700.000000"
 preserveAspectRatio="xMidYMid meet">
<metadata>
Created by potrace 1.11, written by Peter Selinger 2001-2013
</metadata>
<g transform="translate(0.000000,700.000000) scale(0.100000,-0.100000)"
fill="#000000" stroke="none">
<path d="M6090 6702 c-72 -20 -213 -82 -262 -115 -61 -41 -128 -116 -156 -174
-9 -18 -19 -33 -24 -33 -4 0 -8 -4 -8 -9 0 -4 -50 -91 -111 -192 -127 -208
-573 -946 -658 -1086 -31 -51 -83 -137 -115 -190 -84 -139 -692 -1143 -860
-1421 -78 -128 -145 -240 -151 -250 -77 -134 -239 -391 -245 -387 -4 2 -90
142 -191 310 -101 168 -202 335 -225 373 -22 37 -144 238 -271 447 -126 209
-393 650 -593 980 -199 330 -408 674 -462 765 -55 91 -109 177 -119 192 -10
15 -19 30 -19 33 0 3 -11 22 -24 43 -13 20 -84 136 -157 257 -139 230 -191
297 -274 350 -90 58 -158 78 -275 81 -88 2 -116 -2 -174 -21 -178 -61 -315
-215 -352 -397 -4 -18 -8 -1255 -8 -2748 -1 -2077 2 -2729 11 -2774 30 -147
143 -290 283 -359 91 -45 149 -57 255 -52 134 5 246 56 346 156 82 84 122 158
146 279 3 14 6 811 6 1773 0 961 4 1744 7 1740 4 -5 71 -116 150 -248 78 -132
158 -263 176 -292 19 -28 34 -54 34 -57 0 -3 12 -24 28 -48 15 -24 32 -52 39
-63 7 -11 38 -63 70 -115 32 -52 63 -104 69 -115 6 -11 24 -41 40 -67 38 -63
89 -146 259 -428 78 -129 240 -397 360 -595 120 -198 226 -373 235 -390 45
-78 165 -274 200 -325 100 -147 256 -227 445 -228 137 0 282 66 376 172 31 35
343 541 684 1111 50 83 93 152 98 153 4 2 7 7 7 12 0 6 126 219 189 320 6 8
51 83 101 165 50 83 95 157 100 165 5 8 35 58 67 110 31 52 133 221 226 375
94 154 184 304 201 332 17 29 33 53 36 53 3 0 5 -791 5 -1758 1 -1650 2 -1760
18 -1812 28 -88 58 -140 116 -203 68 -73 123 -111 204 -142 186 -70 403 -24
545 115 72 69 106 126 138 223 l23 72 0 2725 c0 2870 2 2768 -42 2872 -51 121
-170 238 -287 282 -74 27 -214 63 -230 58z"/>
</g>
</svg>
